# xmcd
#
# Track frame offsets: 
#        150
#        16347
#        32575
#        55114
#        72787
#        92877
#        103657
#        121940
#        138127
#        157727
#        175727
#        195470
#        206252
#        229442
#        245365
#        267020
#        275540
#        289305
#        297952
#
# Disc length: 4337 seconds
#
# Revision: 1
# Processed by: cddbd v1.5.2PL0 Copyright (c) Steve Scherf et al.
# Submitted via: ExactAudioCopy v0.95b4
#
DISCID=0710ef13
DTITLE=Various Artist - Death ... Is Just The Beginning  Vol. 1
DYEAR=1990
DGENRE=Death Metal
TTITLE0=Intro - Granted Wish-Defecation
TTITLE1=Life Is A Long And Silent Rive-Atrocity
TTITLE2=Massacre Of The Unknown-Incubus
TTITLE3=Defective Decay-Dismember
TTITLE4=Overdose-Righteous Pigs
TTITLE5=Dissappeared With Hermaphrodite-Disharmonic Orchestra
TTITLE6=Children Of The Grave-Master
TTITLE7=Impending Doom-Abomination
TTITLE8=Suspended Animation-Pungent Stench
TTITLE9=Grizzled Finale-Benediction
TTITLE10=Degeneration-Revenant
TTITLE11=Mangled Dehumanization-Death Strike
TTITLE12=Ruinous Dump, Side Effects
TTITLE13=Guerilla-Deathcore
TTITLE14=True Insanity-Toxic Shock
TTITLE15=Sedation-Impulse Manslaughter
TTITLE16=Empire Of The Damned-Messiah
TTITLE17=Interposition-Disharmonic Orchestra
TTITLE18=Dismembered (Demo)-Dismember
EXTD=YEAR: 1
EXTT0=
EXTT1=
EXTT2=
EXTT3=
EXTT4=
EXTT5=
EXTT6=
EXTT7=
EXTT8=
EXTT9=
EXTT10=
EXTT11=
EXTT12=
EXTT13=
EXTT14=
EXTT15=
EXTT16=
EXTT17=
EXTT18=
PLAYORDER=
